<svg width="103" height="56" viewBox="0 0 103 56" fill="none" xmlns="http://www.w3.org/2000/svg">
<g clip-path="url(#clip0)">
<path d="M7.82887 45.1337C8.77005 46.6738 10.9091 48.385 14.6738 48.385C17.1123 48.385 20.8342 46.9732 20.8342 42.4813V40.5989C19.3369 42.2246 17.1979 42.8663 14.6738 43.0802C6.97326 43.7219 0.128338 37.8182 -3.82448e-06 30.0749C-0.128346 22.5454 5.09091 16.385 12.5775 16.385C15.9144 16.385 18.6524 17.4545 20.7059 19.3797H20.8342V17.1123H29.5615V43.123C29.5615 51.5936 23.3155 56 14.6738 56C9.41176 56 3.33689 54.8021 0.641707 48.6417L7.82887 45.1337ZM15.1872 35.7219C18.6096 35.7219 21.0481 33.2406 21.0481 29.8182C21.0481 26.3101 18.4385 23.8289 15.1872 23.8289C11.893 23.8289 9.28342 26.3101 9.28342 29.8182C9.28342 33.2406 11.6364 35.7219 15.1872 35.7219Z" fill="#24282A"/>
<path d="M32.0856 0H40.8128V42.4385H32.0856V0Z" fill="#24282A"/>
<path d="M51.9359 30.9732C51.9359 34.8663 55.1872 36.1925 57.4118 36.1925C60.2353 36.1925 61.476 35.6363 63.5722 33.369L69.9038 36.5347C67.0375 41.3262 62.4171 43.1658 56.7701 43.1658C49.1123 43.1658 42.8663 37.1337 42.8663 29.7754C42.8663 22.3743 49.1123 16.3422 56.7701 16.3422C64.4706 16.3422 70.3316 20.877 70.3316 29.7754C70.3316 30.1176 70.3316 30.6738 70.2888 30.9732H51.9359ZM61.8182 26.139C61.4332 23.4866 59.5936 22.0321 57.0268 22.0321C54.0321 22.0321 52.3209 23.8289 52.1925 26.139H61.8182Z" fill="#24282A"/>
<path d="M92.2782 29.1337L100.235 17.1551H90.6525L87.444 22.0321L92.2782 29.1337Z" fill="#24282A"/>
<path d="M92.2782 31.2299L87.5295 38.0321L91.9787 42.4385L102.032 42.4813L92.2782 31.2299Z" fill="#24282A"/>
<path d="M91.1659 30.0749L76.7916 30.1177L68.1926 17.1551H82.5242L91.1659 30.0749Z" fill="#F16025"/>
<path d="M68.1926 42.4813H82.5242L91.1659 30.0749L76.7916 30.1177L68.1926 42.4813Z" fill="#F68722"/>
</g>
<defs>
<clipPath id="clip0">
<rect width="102.032" height="56" fill="white"/>
</clipPath>
</defs>
</svg>
